HIERARCHY
ROOT root
{
	OFFSET	0	13.1	24.9
	CHANNELS 6  Xposition Yposition Zposition Xrotation Yrotation Zrotation
	JOINT spine_1
	{
		OFFSET	0	9.99999	0
		CHANNELS 3  Xrotation Yrotation Zrotation
		JOINT spine_2
		{
			OFFSET	0	112	-10
			CHANNELS 3  Xrotation Yrotation Zrotation
			JOINT spine_3
			{
				OFFSET	0	206.5	19.3
				CHANNELS 3  Xrotation Yrotation Zrotation
				JOINT spine_4
				{
					OFFSET	0	110.4	14.6
					CHANNELS 3  Xrotation Yrotation Zrotation
					JOINT neck_1
					{
						OFFSET	0	71.8	-50.3
						CHANNELS 3  Xrotation Yrotation Zrotation
						JOINT neck_2
						{
							OFFSET	0	86.2	-25.8
							CHANNELS 3  Xrotation Yrotation Zrotation
							JOINT head_ee
							{
								OFFSET	0	179.8	-8.7
								CHANNELS 3  Xrotation Yrotation Zrotation
								End Site
								{
									OFFSET	1	0	0
								}
							}
						}
					}
					JOINT left_clavicle
					{
						OFFSET	-43.2	22.4	-70.8
						CHANNELS 3  Xrotation Yrotation Zrotation
						JOINT left_shoulder
						{
							OFFSET	-93.9	-5.79999	48.7
							CHANNELS 3  Xrotation Yrotation Zrotation
							JOINT left_elbow
							{
								OFFSET	-291.4	-30.8	15.2
								CHANNELS 3  Xrotation Yrotation Zrotation
								JOINT left_lowarm_twist
								{
									OFFSET	-110.7	-3.89999	13.6
									CHANNELS 3  Xrotation Yrotation Zrotation
									JOINT left_hand
									{
										OFFSET	-110.7	-3.89999	13.6
										CHANNELS 3  Xrotation Yrotation Zrotation
										JOINT left_ee
										{
											OFFSET	-80.8	-5.10001	12.1
											CHANNELS 3  Xrotation Yrotation Zrotation
											End Site
											{
												OFFSET	1	0	0
											}
										}
									}
								}
							}
						}
					}
					JOINT right_clavicle
					{
						OFFSET	43.2	22.4	-70.8
						CHANNELS 3  Xrotation Yrotation Zrotation
						JOINT right_shoulder
						{
							OFFSET	93.9	-5.79999	48.7
							CHANNELS 3  Xrotation Yrotation Zrotation
							JOINT right_elbow
							{
								OFFSET	291.4	-30.8	15.2
								CHANNELS 3  Xrotation Yrotation Zrotation
								JOINT right_lowarm_twist
								{
									OFFSET	110.7	-3.89999	13.6
									CHANNELS 3  Xrotation Yrotation Zrotation
									JOINT right_hand
									{
										OFFSET	110.7	-3.89999	13.6
										CHANNELS 3  Xrotation Yrotation Zrotation
										JOINT right_ee
										{
											OFFSET	80.8	-5.10001	12.1
											CHANNELS 3  Xrotation Yrotation Zrotation
											End Site
											{
												OFFSET	1	0	0
											}
										}
									}
								}
							}
						}
					}
				}
			}
		}
	}
	JOINT left_hip
	{
		OFFSET	-82.8	-127.5	0.300001
		CHANNELS 3  Xrotation Yrotation Zrotation
		JOINT left_knee
		{
			OFFSET	-28.2	-396.7	2.2
			CHANNELS 3  Xrotation Yrotation Zrotation
			JOINT left_ankle
			{
				OFFSET	-11.7	-411.3	35.4
				CHANNELS 3  Xrotation Yrotation Zrotation
				JOINT left_toes
				{
					OFFSET	0	-60	-88.6
					CHANNELS 3  Xrotation Yrotation Zrotation
					JOINT left_foot_ee
					{
						OFFSET	-22.5	-16.5	-42.2
						CHANNELS 3  Xrotation Yrotation Zrotation
						End Site
						{
							OFFSET	1	0	0
						}
					}
				}
			}
		}
	}
	JOINT right_hip
	{
		OFFSET	82.8	-127.5	0.300001
		CHANNELS 3  Xrotation Yrotation Zrotation
		JOINT right_knee
		{
			OFFSET	28.2	-396.7	2.2
			CHANNELS 3  Xrotation Yrotation Zrotation
			JOINT right_ankle
			{
				OFFSET	11.7	-411.3	35.4
				CHANNELS 3  Xrotation Yrotation Zrotation
				JOINT right_toes
				{
					OFFSET	0	-60	-88.6
					CHANNELS 3  Xrotation Yrotation Zrotation
					JOINT right_foot_ee
					{
						OFFSET	22.5	-16.5	-42.2
						CHANNELS 3  Xrotation Yrotation Zrotation
						End Site
						{
							OFFSET	1	0	0
						}
					}
				}
			}
		}
	}
}
MOTION
Frames: 8
Frame Time: 0.02
2476.46906651 751.703 -1463.89961386 36.4292786565 83.1557039511 -44.1385848597 -1.29345 0.173112 2.85546 -1.28892 -0.00886342 2.86069 -1.28591 -0.673015 2.78047 -1.29662 -0.225633 2.8518 -4.00273 17.1155 1.4772 -3.70007 30.2538 4.20506 -0.0 0.0 -0.0 -3.24614 23.0056 -1.82813 -12.6351 -11.9275 72.2161 0.497369 -13.8412 0.0603701 -60.4481 -5.33853 5.11491 0.333093 9.50124 6.08857 -0.0 0.0 -0.0 13.0243 24.9184 -25.8563 -4.20848 31.6026 -60.0557 1.55804 37.6585 -0.531316 -1.63958 0.0606473 -0.200583 -1.22559 4.13749 10.0544 0.0 0.0 0.0 0.712881 6.35633 4.47399 -38.0653 -0.348295 5.72553 37.1779 14.9462 -4.67037 -28.4773 0.0 0.0 -0.0 0.0 -0.0 1.51991 24.9502 1.63891 0.30619 0.0127292 0.045263 37.2329 -10.2473 4.62717 -34.8704 0.0 0.0 0.0 0.0 0.0 
2471.23260036 751.029 -1458.77217597 46.9451378847 84.5460567042 -54.3415038507 -1.24032 0.0128372 2.77939 -1.23603 -0.163979 2.77458 -1.24107 -0.801937 2.6613 -1.25076 -0.371739 2.75447 -4.96383 16.4496 1.23257 -4.77109 29.3876 4.09268 -0.0 0.0 -0.0 -3.5716 22.4566 -2.39934 -14.0702 -11.9576 72.9206 0.491292 -13.6785 0.0589246 -60.4129 -5.33415 5.11385 0.589211 9.27339 7.65858 -0.0 0.0 -0.0 12.9789 24.0176 -25.8466 -2.12627 30.2934 -60.0465 1.71971 40.424 -0.633182 -2.94368 0.112974 -0.358855 -1.04544 6.1919 9.72503 0.0 0.0 0.0 1.49997 7.37845 2.12378 -34.6851 -0.163703 5.24012 36.8815 14.2623 -4.63301 -28.5878 0.0 0.0 -0.0 0.0 -0.0 0.966759 25.3488 1.58337 0.888536 0.0376069 0.131162 35.1487 -9.0969 4.42122 -36.5705 0.0 0.0 0.0 0.0 0.0 
2471.53277946 753.987 -1454.88603699 52.0028658598 85.0170335272 -58.9773887389 -1.40308 0.186051 2.72607 -1.39895 0.0122729 2.73238 -1.39506 -0.627662 2.6594 -1.40487 -0.199947 2.72509 -5.82982 15.3635 1.25612 -5.73491 27.5036 4.1332 -0.0 0.0 -0.0 -3.58889 21.8306 -2.55852 -13.8476 -12.2966 73.2632 0.549958 -15.2396 0.073574 -59.5549 -5.22745 5.08711 0.896613 7.47892 8.97376 -0.0 0.0 -0.0 12.9202 23.1038 -25.8008 -0.484545 29.6107 -60.0217 1.88024 42.9619 -0.739978 -3.20552 0.123915 -0.390489 -1.01328 10.1921 11.2391 0.0 0.0 0.0 2.47369 9.67627 1.32465 -27.0888 0.144515 4.116 36.0759 12.1379 -4.53237 -29.5598 0.0 0.0 -0.0 0.0 -0.0 1.71073 26.1891 1.0046 1.40646 0.0604664 0.207348 32.6061 -9.54054 4.1688 -39.9318 0.0 0.0 0.0 0.0 0.0 
2464.46924408 760.353 -1461.64847325 49.2716149856 84.9836227385 -55.9163551572 -1.37801 0.103398 2.77478 -1.37373 -0.0733082 2.77573 -1.37406 -0.720134 2.68176 -1.38398 -0.287732 2.76176 -7.65135 14.2527 1.09755 -7.70257 25.8193 4.1706 -0.0 0.0 -0.0 -3.86399 21.2227 -3.08748 -14.8048 -12.0678 74.3368 0.592217 -16.3501 0.0850773 -59.3181 -5.19807 5.07944 1.17068 7.34129 10.7307 -0.0 0.0 -0.0 12.7801 22.0096 -25.5757 1.41147 28.1544 -60.3856 2.08059 45.8596 -0.880232 -4.23095 0.168152 -0.513893 -0.81739 12.7364 10.9819 0.0 0.0 0.0 5.17552 10.9482 0.951496 -17.29 0.318055 2.6242 33.7092 11.9237 -4.29637 -31.0437 0.0 0.0 -0.0 0.0 -0.0 1.00542 27.4234 1.2101 0.725597 0.0305581 0.107153 31.2633 -8.10567 4.02431 -40.3192 0.0 0.0 0.0 0.0 0.0 
2455.77353468 760.445 -1457.55905247 46.4428272035 85.7258191692 -52.7205759746 -1.31347 0.215311 2.76809 -1.30921 0.0388031 2.77618 -1.30397 -0.607797 2.70915 -1.31417 -0.172482 2.77109 -7.46955 13.8715 -0.527672 -7.50227 26.2306 2.43436 -0.0 0.0 -0.0 -3.77333 20.5945 -3.09426 -15.0349 -12.0986 74.3277 0.585567 -16.1762 0.0832149 -58.7112 -5.12292 5.05925 1.50902 6.31184 12.5961 -0.0 0.0 -0.0 12.6837 21.7656 -25.3733 1.57709 27.6013 -60.8175 2.25295 48.1324 -1.0063 -4.30212 0.171304 -0.522428 -0.926141 14.0488 12.2846 0.0 0.0 0.0 6.24249 10.1077 1.18276 -13.3097 0.315343 2.01364 32.0056 9.87052 -4.10838 -32.386 0.0 0.0 -0.0 0.0 -0.0 1.06618 28.3496 1.05092 0.230087 0.00954256 0.0340192 30.8619 -7.24695 3.98038 -40.1309 0.0 0.0 0.0 0.0 0.0 
2455.8340991 760.445 -1456.31718459 48.5097544819 85.8651853368 -54.793078187 -1.31347 0.215311 2.76809 -1.30921 0.0388031 2.77618 -1.30397 -0.607797 2.70915 -1.31417 -0.172482 2.77109 -7.46955 13.8715 -0.527672 -7.50227 26.2306 2.43436 -0.0 0.0 -0.0 -3.77333 20.5945 -3.09426 -15.0349 -12.0986 74.3277 0.585567 -16.1762 0.0832149 -58.7112 -5.12292 5.05925 1.50902 6.31184 12.5961 -0.0 0.0 -0.0 12.6837 21.7656 -25.3733 1.57709 27.6013 -60.8175 2.25295 48.1324 -1.0063 -4.30212 0.171304 -0.522428 -0.926141 14.0488 12.2846 0.0 0.0 0.0 6.24249 10.1077 1.18276 -13.3097 0.315343 2.01364 32.0056 9.87052 -4.10838 -32.386 0.0 0.0 -0.0 0.0 -0.0 1.06618 28.3496 1.05092 0.230087 0.00954256 0.0340192 30.8619 -7.24695 3.98038 -40.1309 0.0 0.0 0.0 0.0 0.0 
2455.96894279 760.445 -1453.82875411 53.0854753844 86.1265732886 -59.3799717517 -1.31347 0.215311 2.76809 -1.30921 0.0388031 2.77618 -1.30397 -0.607797 2.70915 -1.31417 -0.172482 2.77109 -7.46955 13.8715 -0.527672 -7.50227 26.2306 2.43436 -0.0 0.0 -0.0 -3.77333 20.5945 -3.09426 -15.0349 -12.0986 74.3277 0.585567 -16.1762 0.0832149 -58.7112 -5.12292 5.05925 1.50902 6.31184 12.5961 -0.0 0.0 -0.0 12.6837 21.7656 -25.3733 1.57709 27.6013 -60.8175 2.25295 48.1324 -1.0063 -4.30212 0.171304 -0.522428 -0.926141 14.0488 12.2846 0.0 0.0 0.0 6.24249 10.1077 1.18276 -13.3097 0.315343 2.01364 32.0056 9.87052 -4.10838 -32.386 0.0 0.0 -0.0 0.0 -0.0 1.06618 28.3496 1.05092 0.230087 0.00954256 0.0340192 30.8619 -7.24695 3.98038 -40.1309 0.0 0.0 0.0 0.0 0.0 
2456.42278791 760.445 -1447.1134028 68.6307585188 86.6751096589 -74.9554233237 -1.31347 0.215311 2.76809 -1.30921 0.0388031 2.77618 -1.30397 -0.607797 2.70915 -1.31417 -0.172482 2.77109 -7.46955 13.8715 -0.527672 -7.50227 26.2306 2.43436 -0.0 0.0 -0.0 -3.77333 20.5945 -3.09426 -15.0349 -12.0986 74.3277 0.585567 -16.1762 0.0832149 -58.7112 -5.12292 5.05925 1.50902 6.31184 12.5961 -0.0 0.0 -0.0 12.6837 21.7656 -25.3733 1.57709 27.6013 -60.8175 2.25295 48.1324 -1.0063 -4.30212 0.171304 -0.522428 -0.926141 14.0488 12.2846 0.0 0.0 0.0 6.24249 10.1077 1.18276 -13.3097 0.315343 2.01364 32.0056 9.87052 -4.10838 -32.386 0.0 0.0 -0.0 0.0 -0.0 1.06618 28.3496 1.05092 0.230087 0.00954256 0.0340192 30.8619 -7.24695 3.98038 -40.1309 0.0 0.0 0.0 0.0 0.0 
